<svg xmlns="http://www.w3.org/2000/svg" width="720" height="328" viewBox="0 0 720 328" role="img" aria-label="Top Languages">
  <defs>
    <linearGradient id="bg" x1="0%" x2="100%" y1="0%" y2="100%">
      <stop offset="0%" stop-color="#0F172A" />
      <stop offset="100%" stop-color="#0D1117" />
    </linearGradient>
  </defs>
  <rect x="0.5" y="0.5" width="719" height="327" rx="18" fill="url(#bg)" stroke="#1F2937" />
  <text x="28" y="38" font-family="Segoe UI, Arial, sans-serif" font-size="24" font-weight="700" fill="#E5E7EB">Top Languages</text>
  <text x="28" y="64" font-family="Segoe UI, Arial, sans-serif" font-size="13" fill="#94A3B8">Language share aggregated from repository byte counts</text>
  <rect x="30" y="96" width="255" height="18" rx="9" fill="#38BDF8" /><rect x="285" y="96" width="202" height="18" rx="9" fill="#22C55E" /><rect x="487" y="96" width="93" height="18" rx="9" fill="#F59E0B" /><rect x="580" y="96" width="51" height="18" rx="9" fill="#A855F7" /><rect x="631" y="96" width="47" height="18" rx="9" fill="#EF4444" /><rect x="678" y="96" width="12" height="18" rx="9" fill="#14B8A6" />
      <circle cx="40" cy="145" r="6" fill="#38BDF8" />
      <text x="56" y="150" font-family="Segoe UI, Arial, sans-serif" font-size="14" fill="#E5E7EB">Python</text>
      <text x="680" y="150" text-anchor="end" font-family="Segoe UI, Arial, sans-serif" font-size="14" fill="#94A3B8">38.6%</text>

      <circle cx="40" cy="173" r="6" fill="#22C55E" />
      <text x="56" y="178" font-family="Segoe UI, Arial, sans-serif" font-size="14" fill="#E5E7EB">TypeScript</text>
      <text x="680" y="178" text-anchor="end" font-family="Segoe UI, Arial, sans-serif" font-size="14" fill="#94A3B8">30.6%</text>

      <circle cx="40" cy="201" r="6" fill="#F59E0B" />
      <text x="56" y="206" font-family="Segoe UI, Arial, sans-serif" font-size="14" fill="#E5E7EB">JavaScript</text>
      <text x="680" y="206" text-anchor="end" font-family="Segoe UI, Arial, sans-serif" font-size="14" fill="#94A3B8">14.1%</text>

      <circle cx="40" cy="229" r="6" fill="#A855F7" />
      <text x="56" y="234" font-family="Segoe UI, Arial, sans-serif" font-size="14" fill="#E5E7EB">Vue</text>
      <text x="680" y="234" text-anchor="end" font-family="Segoe UI, Arial, sans-serif" font-size="14" fill="#94A3B8">7.7%</text>

      <circle cx="40" cy="257" r="6" fill="#EF4444" />
      <text x="56" y="262" font-family="Segoe UI, Arial, sans-serif" font-size="14" fill="#E5E7EB">CSS</text>
      <text x="680" y="262" text-anchor="end" font-family="Segoe UI, Arial, sans-serif" font-size="14" fill="#94A3B8">7.1%</text>

      <circle cx="40" cy="285" r="6" fill="#14B8A6" />
      <text x="56" y="290" font-family="Segoe UI, Arial, sans-serif" font-size="14" fill="#E5E7EB">Java</text>
      <text x="680" y="290" text-anchor="end" font-family="Segoe UI, Arial, sans-serif" font-size="14" fill="#94A3B8">1.9%</text>

      <text x="30" y="300" font-family="Segoe UI, Arial, sans-serif" font-size="12" fill="#94A3B8">Aggregated from owned repositories only · Generated at 2026-05-15 11:07 UTC</text>

</svg>