<svg xmlns="http://www.w3.org/2000/svg" width="720" height="248" viewBox="0 0 720 248" role="img" aria-label="Live Ops / Monitoring">
  <defs>
    <linearGradient id="bg" x1="0%" x2="100%" y1="0%" y2="100%">
      <stop offset="0%" stop-color="#0F172A" />
      <stop offset="100%" stop-color="#0D1117" />
    </linearGradient>
  </defs>
  <rect x="0.5" y="0.5" width="719" height="247" rx="18" fill="url(#bg)" stroke="#1F2937" />
  <text x="28" y="38" font-family="Segoe UI, Arial, sans-serif" font-size="24" font-weight="700" fill="#E5E7EB">Live Ops / Monitoring</text>
  <text x="28" y="64" font-family="Segoe UI, Arial, sans-serif" font-size="13" fill="#94A3B8">Uptime Kuma-style summary for production sites and API edges</text>
  
      <rect x="28" y="94" width="150" height="90" rx="14" fill="#111827" stroke="#1F2937" />
      <circle cx="52" cy="120" r="7" fill="#38BDF8" />
      <text x="68" y="126" font-family="Segoe UI, Arial, sans-serif" font-size="13" fill="#94A3B8">Targets</text>
      <text x="48" y="160" font-family="Segoe UI, Arial, sans-serif" font-size="26" font-weight="700" fill="#E5E7EB">6</text>

      <rect x="198" y="94" width="150" height="90" rx="14" fill="#111827" stroke="#1F2937" />
      <circle cx="222" cy="120" r="7" fill="#22C55E" />
      <text x="238" y="126" font-family="Segoe UI, Arial, sans-serif" font-size="13" fill="#94A3B8">Online</text>
      <text x="218" y="160" font-family="Segoe UI, Arial, sans-serif" font-size="26" font-weight="700" fill="#E5E7EB">5</text>

      <rect x="368" y="94" width="150" height="90" rx="14" fill="#111827" stroke="#1F2937" />
      <circle cx="392" cy="120" r="7" fill="#EF4444" />
      <text x="408" y="126" font-family="Segoe UI, Arial, sans-serif" font-size="13" fill="#94A3B8">Offline</text>
      <text x="388" y="160" font-family="Segoe UI, Arial, sans-serif" font-size="26" font-weight="700" fill="#E5E7EB">1</text>

      <rect x="538" y="94" width="150" height="90" rx="14" fill="#111827" stroke="#1F2937" />
      <circle cx="562" cy="120" r="7" fill="#F59E0B" />
      <text x="578" y="126" font-family="Segoe UI, Arial, sans-serif" font-size="13" fill="#94A3B8">Avg Latency</text>
      <text x="558" y="160" font-family="Segoe UI, Arial, sans-serif" font-size="26" font-weight="700" fill="#E5E7EB">1799.7 ms</text>

      <text x="28" y="220" font-family="Segoe UI, Arial, sans-serif" font-size="12" fill="#94A3B8">Generated at 2026-05-17 09:21 UTC · README-embedded ops snapshot</text>

</svg>